<svg width="20" height="21" viewBox="0 0 20 21" fill="none" xmlns="http://www.w3.org/2000/svg">
<g id="tabler-icon-currency-dollar">
<path id="Vector" d="M13.9163 7.16667C13.7505 6.69603 13.4475 6.2858 13.0466 5.98878C12.6456 5.69176 12.1649 5.52153 11.6663 5.5H8.33301C7.66997 5.5 7.03408 5.76339 6.56524 6.23223C6.0964 6.70107 5.83301 7.33696 5.83301 8C5.83301 8.66304 6.0964 9.29893 6.56524 9.76777C7.03408 10.2366 7.66997 10.5 8.33301 10.5H11.6663C12.3294 10.5 12.9653 10.7634 13.4341 11.2322C13.9029 11.7011 14.1663 12.337 14.1663 13C14.1663 13.663 13.9029 14.2989 13.4341 14.7678C12.9653 15.2366 12.3294 15.5 11.6663 15.5H8.33301C7.83446 15.4785 7.35377 15.3082 6.95278 15.0112C6.5518 14.7142 6.24888 14.304 6.08301 13.8333M9.99967 3V5.5M9.99967 15.5V18" stroke="#373839" stroke-linecap="round" stroke-linejoin="round"/>
</g>
</svg>
