<svg width="20" height="21" viewBox="0 0 20 21" fill="none" xmlns="http://www.w3.org/2000/svg">
<g id="tabler-icon-file-pencil">
<path id="Vector" d="M11.6667 3V6.33333C11.6667 6.55435 11.7545 6.76631 11.9108 6.92259C12.0671 7.07887 12.2791 7.16667 12.5001 7.16667H15.8334M11.6667 3H5.83341C5.39139 3 4.96746 3.17559 4.6549 3.48816C4.34234 3.80072 4.16675 4.22464 4.16675 4.66667V16.3333C4.16675 16.7754 4.34234 17.1993 4.6549 17.5118C4.96746 17.8244 5.39139 18 5.83341 18H14.1667C14.6088 18 15.0327 17.8244 15.3453 17.5118C15.6578 17.1993 15.8334 16.7754 15.8334 16.3333V7.16667M11.6667 3L15.8334 7.16667M8.33341 15.5L12.5001 11.3334C12.7211 11.1123 12.8453 10.8126 12.8453 10.5C12.8453 10.1875 12.7211 9.8877 12.5001 9.66669C12.2791 9.44568 11.9793 9.32151 11.6667 9.32151C11.3542 9.32151 11.0544 9.44568 10.8334 9.66669L6.66675 13.8334V15.5H8.33341Z" stroke="#373839" stroke-linecap="round" stroke-linejoin="round"/>
</g>
</svg>
