<svg width="20" height="21" viewBox="0 0 20 21" fill="none" xmlns="http://www.w3.org/2000/svg">
<g id="tabler-icon-map-pin">
<g id="Vector">
<path d="M7.49992 9.66665C7.49992 10.3297 7.76331 10.9656 8.23215 11.4344C8.70099 11.9033 9.33688 12.1666 9.99992 12.1666C10.663 12.1666 11.2988 11.9033 11.7677 11.4344C12.2365 10.9656 12.4999 10.3297 12.4999 9.66665C12.4999 9.0036 12.2365 8.36772 11.7677 7.89888C11.2988 7.43004 10.663 7.16665 9.99992 7.16665C9.33688 7.16665 8.70099 7.43004 8.23215 7.89888C7.76331 8.36772 7.49992 9.0036 7.49992 9.66665Z" stroke="#373839" stroke-linecap="round" stroke-linejoin="round"/>
<path d="M14.7141 14.3808L11.1783 17.9166C10.8657 18.2288 10.4421 18.4042 10.0003 18.4042C9.5586 18.4042 9.13493 18.2288 8.82242 17.9166L5.28576 14.3808C4.35344 13.4484 3.71853 12.2605 3.46133 10.9673C3.20412 9.67413 3.33616 8.3337 3.84076 7.11555C4.34535 5.89739 5.19984 4.85622 6.29616 4.1237C7.39248 3.39117 8.68139 3.00018 9.99992 3.00018C11.3184 3.00018 12.6074 3.39117 13.7037 4.1237C14.8 4.85622 15.6545 5.89739 16.1591 7.11555C16.6637 8.3337 16.7957 9.67413 16.5385 10.9673C16.2813 12.2605 15.6464 13.4484 14.7141 14.3808Z" stroke="#373839" stroke-linecap="round" stroke-linejoin="round"/>
</g>
</g>
</svg>
